<?xml version="1.0" standalone="no"?>
<!DOCTYPE svg PUBLIC "-//W3C//DTD SVG 20010904//EN"
 "http://www.w3.org/TR/2001/REC-SVG-20010904/DTD/svg10.dtd">
<svg version="1.0" xmlns="http://www.w3.org/2000/svg"
 width="600.000000pt" height="480.000000pt" viewBox="0 0 600.000000 480.000000"
 preserveAspectRatio="xMidYMid meet">

<g transform="translate(0.000000,480.000000) scale(0.100000,-0.100000)"
fill="#000000" stroke="none">
<path d="M0 2400 l0 -2400 3000 0 3000 0 0 2400 0 2400 -3000 0 -3000 0 0
-2400z m3695 1273 c161 -81 234 -122 230 -131 -4 -11 -625 -940 -724 -1084
-14 -21 -34 -37 -43 -38 -10 0 -18 2 -18 5 0 3 52 85 116 183 64 97 119 183
122 190 2 8 -77 -27 -177 -77 l-181 -91 0 -105 c0 -98 -1 -105 -20 -105 -19 0
-20 7 -20 105 l0 105 -181 91 c-100 50 -179 85 -177 77 3 -7 58 -93 122 -190
64 -98 116 -180 116 -183 0 -3 -8 -5 -17 -5 -10 1 -35 26 -57 58 -250 368
-719 1072 -715 1076 2 2 108 56 234 119 l230 116 462 0 463 1 235 -117z
m-2165 -1868 c0 -8 -4 -15 -10 -15 -5 0 -10 7 -10 15 0 8 5 15 10 15 6 0 10
-7 10 -15z m1318 -9 c7 -7 15 -29 19 -49 4 -30 3 -37 -11 -37 -10 0 -16 8 -16
21 0 38 -19 59 -53 59 -18 0 -38 -5 -45 -12 -26 -26 -12 -59 58 -133 59 -63
70 -79 70 -109 0 -44 -29 -66 -87 -66 -54 0 -83 26 -83 75 0 24 5 35 15 35 10
0 15 -11 15 -35 0 -37 20 -55 62 -55 31 0 48 18 48 50 0 19 -18 45 -64 91 -36
36 -68 78 -72 94 -9 36 12 77 46 86 31 9 81 1 98 -15z m-1666 -7 c19 -16 20
-18 4 -12 -15 5 -17 3 -11 -8 6 -11 5 -12 -6 -1 -7 6 -26 12 -41 12 -15 0 -28
5 -28 11 0 8 -4 8 -13 0 -10 -8 -17 -7 -26 2 -11 10 -11 8 -2 -10 16 -31 14
-63 -4 -63 -11 0 -15 11 -15 38 0 21 3 41 6 45 3 3 30 6 60 6 38 0 60 -6 76
-20z m318 11 c0 -5 -4 -10 -10 -10 -17 0 -34 -44 -31 -81 1 -25 -3 -38 -14
-42 -17 -7 -21 18 -5 28 6 3 10 12 10 18 0 7 -4 6 -10 -3 -7 -11 -10 -7 -10
18 0 23 4 31 12 26 8 -5 9 -2 5 11 -4 9 -2 24 4 31 13 16 49 19 49 4z m80 0
c16 -9 18 -25 19 -151 2 -168 -3 -179 -80 -179 -39 0 -51 4 -68 26 -25 32 -28
84 -6 84 10 0 15 -10 15 -29 0 -16 7 -37 16 -45 17 -17 61 -21 83 -7 15 10 33
154 19 159 -4 2 -8 30 -8 62 0 42 -4 59 -15 64 -17 6 -20 26 -4 26 6 0 19 -4
29 -10z m313 -4 c3 -8 -2 -16 -13 -19 -15 -4 -17 -13 -14 -67 4 -47 2 -61 -8
-58 -9 3 -14 30 -16 81 -3 76 -2 77 22 77 13 0 26 -6 29 -14z m167 -1 c0 -8
-4 -15 -9 -15 -12 0 -34 -58 -61 -163 -17 -66 -27 -87 -38 -85 -16 3 -45 94
-36 110 3 4 0 8 -7 8 -8 0 -9 10 -5 30 3 17 2 29 -3 26 -5 -3 -11 2 -14 12 -2
9 -8 25 -12 35 -5 12 -2 17 9 17 14 0 34 -50 41 -105 2 -11 9 -33 15 -50 l12
-30 18 53 c10 29 20 68 23 85 10 58 25 87 47 87 11 0 20 -7 20 -15z m266 -20
c-11 -57 5 -254 21 -271 18 -17 65 -18 81 -2 8 8 12 58 12 160 0 125 2 148 15
148 13 0 15 -24 15 -154 0 -149 -1 -155 -22 -170 -23 -16 -94 -21 -114 -8 -22
14 -34 52 -34 106 0 38 4 56 13 57 10 0 10 2 0 6 -9 3 -13 29 -13 78 0 67 4
79 29 84 2 1 0 -15 -3 -34z m1162 11 c13 -13 17 -34 17 -92 0 -68 -3 -78 -24
-95 -14 -11 -39 -19 -62 -19 l-39 0 0 -50 c0 -38 -4 -50 -15 -50 -13 0 -15 25
-15 166 l0 166 60 -4 c39 -3 67 -10 78 -22z m382 15 c0 -6 -24 -11 -52 -13
l-53 -3 -3 -62 -3 -63 46 0 c33 0 45 -4 45 -15 0 -11 -12 -15 -45 -15 l-45 0
0 -65 0 -65 60 0 c33 0 60 -4 60 -10 0 -6 -32 -10 -75 -10 l-75 0 0 165 0 165
70 0 c39 0 70 -4 70 -9z m260 -3 c0 -10 2 -10 8 -1 11 17 82 14 82 -3 0 -8 -9
-14 -20 -14 -11 0 -20 5 -20 12 0 8 -6 6 -16 -4 -14 -14 -17 -38 -15 -162 2
-105 -1 -146 -9 -146 -8 0 -11 37 -10 128 3 175 3 170 -22 174 -32 5 -35 28
-4 28 14 0 26 -6 26 -12z m413 6 c10 -3 17 -15 17 -32 0 -23 -1 -24 -12 -9
-21 26 -61 37 -76 20 -16 -17 -36 -12 -40 9 -3 13 7 16 45 17 26 0 56 -2 66
-5z m376 -31 c6 -21 13 -58 17 -82 10 -65 -18 -49 -33 20 -6 29 -19 59 -27 65
-24 17 -19 34 9 34 20 0 26 -7 34 -37z m-335 -123 c-3 -14 -14 -32 -26 -41
-20 -16 -20 -16 12 -72 25 -44 28 -57 17 -57 -9 0 -30 27 -48 60 -25 47 -37
60 -55 60 -23 0 -24 -4 -24 -60 0 -47 -3 -60 -15 -60 -12 0 -15 15 -15 79 0
61 3 80 15 85 9 3 15 0 15 -9 0 -11 11 -15 38 -15 60 1 72 17 73 96 l1 69 9
-55 c5 -30 6 -66 3 -80z m-2524 84 c0 -21 -4 -33 -10 -29 -17 10 -11 65 7 65
2 0 3 -16 3 -36z m2820 31 c0 -2 -9 -43 -20 -90 -11 -47 -20 -88 -20 -90 0 -3
21 -5 46 -5 46 0 46 0 41 30 -5 22 -3 30 8 30 14 0 53 -145 42 -157 -11 -10
-24 7 -30 37 -6 29 -8 30 -61 30 -55 0 -55 0 -62 -35 -4 -22 -12 -35 -21 -35
-11 0 -14 6 -9 23 3 12 11 48 17 80 6 31 16 57 20 57 5 0 9 15 9 34 0 54 11
96 26 96 8 0 14 -2 14 -5z m-3675 -64 c0 -29 -5 -46 -14 -49 -10 -3 -12 2 -8
24 3 15 1 39 -4 52 -8 20 -6 23 8 20 14 -3 18 -13 18 -47z m3253 2 c-4 -65
-26 -68 -26 -3 0 37 4 50 15 50 11 0 13 -11 11 -47z m-3391 -15 c0 -7 1 -52 1
-100 l2 -88 45 0 c54 0 65 16 65 89 0 28 5 51 10 51 6 0 10 -28 10 -64 0 -84
-12 -96 -91 -96 l-60 0 3 95 c2 52 0 95 -4 95 -5 0 -8 7 -8 15 0 8 6 15 14 15
8 0 14 -6 13 -12z m993 -20 c0 -26 -24 -18 -28 10 -3 16 1 20 12 16 9 -3 16
-15 16 -26z m-600 -48 c0 -20 -5 -30 -15 -30 -18 0 -20 21 -2 39 10 11 10 13
0 7 -7 -4 -13 -2 -13 3 0 6 7 11 15 11 10 0 15 -10 15 -30z m410 -61 c0 -64
-3 -79 -15 -79 -12 0 -15 16 -15 85 0 71 2 83 15 79 12 -5 15 -24 15 -85z
m190 1 c0 -47 -4 -80 -10 -80 -6 0 -10 33 -10 80 0 47 4 80 10 80 6 0 10 -33
10 -80z m-1916 -325 c-4 -8 -8 -15 -10 -15 -2 0 -4 7 -4 15 0 8 4 15 10 15 5
0 7 -7 4 -15z m308 -32 c-5 -83 -9 -90 -11 -20 0 37 2 67 7 67 4 0 6 -21 4
-47z m43 37 c3 -6 -1 -7 -9 -4 -18 7 -21 14 -7 14 6 0 13 -4 16 -10z m184 -18
c0 -14 -2 -13 -9 3 -8 19 -9 19 -9 1 -1 -11 -4 -17 -7 -13 -4 3 -4 13 0 22 7
20 26 10 25 -13z m353 -2 c-4 -26 -1 -30 19 -31 23 -2 23 -2 2 -6 -16 -3 -23
-13 -26 -36 -2 -18 -5 -2 -5 36 -1 37 2 67 6 67 5 0 7 -13 4 -30z m366 -1 c-3
-8 -7 -3 -11 10 -4 17 -3 21 5 13 5 -5 8 -16 6 -23z m202 -34 c0 -30 -3 -56
-7 -58 -5 -3 -8 23 -8 58 0 35 3 61 8 58 4 -2 7 -28 7 -58z m137 -32 c-2 -21
-4 -6 -4 32 0 39 2 55 4 38 2 -18 2 -50 0 -70z m175 50 c-5 -83 -9 -90 -11
-20 0 37 2 67 7 67 4 0 6 -21 4 -47z m150 0 c-5 -83 -9 -90 -11 -20 0 37 2 67
7 67 4 0 6 -21 4 -47z m43 37 c3 -6 -1 -7 -9 -4 -18 7 -21 14 -7 14 6 0 13 -4
16 -10z m184 -18 c0 -14 -2 -13 -9 3 -5 12 -9 14 -9 6 -1 -8 -4 -12 -7 -8 -9
9 6 28 17 22 5 -4 9 -14 8 -23z m293 -12 c-4 -35 -2 -40 17 -40 17 0 21 6 21
34 0 19 -5 37 -10 39 -6 3 -5 4 2 3 8 -2 13 -18 13 -42 0 -33 -4 -40 -22 -42
-13 -2 -23 -12 -26 -25 -2 -12 -5 8 -6 46 0 37 2 67 7 67 4 0 6 -18 4 -40z
m202 25 c-4 -8 -8 -15 -10 -15 -2 0 -4 7 -4 15 0 8 4 15 10 15 5 0 7 -7 4 -15z
m380 0 c-4 -8 -8 -15 -10 -15 -2 0 -4 7 -4 15 0 8 4 15 10 15 5 0 7 -7 4 -15z
m336 5 c0 -5 -2 -10 -4 -10 -3 0 -8 5 -11 10 -3 6 -1 10 4 10 6 0 11 -4 11
-10z m348 -21 c-3 -8 -7 -3 -11 10 -4 17 -3 21 5 13 5 -5 8 -16 6 -23z m144
-51 c2 -25 0 -44 -4 -41 -5 2 -7 32 -7 66 2 65 6 55 11 -25z m51 -39 c-4 -4
-6 22 -3 59 l5 67 3 -59 c2 -32 -1 -63 -5 -67z m177 111 c0 -5 -2 -10 -4 -10
-3 0 -8 5 -11 10 -3 6 -1 10 4 10 6 0 11 -4 11 -10z m318 -51 c16 -1 16 -2 0
-6 -10 -2 -18 -17 -21 -36 -2 -18 -4 0 -4 38 0 39 2 55 4 38 3 -22 10 -33 21
-34z m352 -1 l-5 -63 -3 49 c-3 43 2 76 10 76 2 0 1 -28 -2 -62z m357 -20 c-2
-18 -4 -6 -4 27 0 33 2 48 4 33 2 -15 2 -42 0 -60z m56 -39 c-4 -4 -6 22 -3
59 l5 67 3 -59 c2 -32 -1 -63 -5 -67z m152 57 c0 -35 -3 -62 -7 -59 -15 8 -9
123 6 123 1 0 1 -29 1 -64z m215 60 c0 -3 -4 -8 -10 -11 -5 -3 -10 -1 -10 4 0
6 5 11 10 11 6 0 10 -2 10 -4z m165 -60 c0 -35 -3 -62 -7 -59 -15 8 -9 123 6
123 1 0 1 -29 1 -64z m-4488 32 c-3 -8 -6 -5 -6 6 -1 11 2 17 5 13 3 -3 4 -12
1 -19z m-1190 -10 c-3 -8 -6 -5 -6 6 -1 11 2 17 5 13 3 -3 4 -12 1 -19z m1385
-45 c2 -23 0 -39 -4 -37 -5 3 -7 29 -7 57 1 56 6 48 11 -20z m1255 45 c-3 -8
-6 -5 -6 6 -1 11 2 17 5 13 3 -3 4 -12 1 -19z m3086 -79 c-4 -4 -6 18 -3 49
l5 57 3 -49 c2 -27 0 -52 -5 -57z m-2406 69 c-3 -8 -6 -5 -6 6 -1 11 2 17 5
13 3 -3 4 -12 1 -19z m30 0 c-3 -8 -6 -5 -6 6 -1 11 2 17 5 13 3 -3 4 -12 1
-19z m340 -60 c-4 -9 -6 -8 -6 3 -1 8 -12 26 -26 39 -14 13 -25 27 -25 32 0 5
14 -7 31 -26 17 -20 28 -41 26 -48z m-2957 6 c0 -7 -4 -16 -10 -19 -6 -3 -7 1
-4 10 4 10 -4 28 -22 48 l-29 32 33 -29 c17 -17 32 -35 32 -42z m4757 44 c-3
-8 -6 -5 -6 6 -1 11 2 17 5 13 3 -3 4 -12 1 -19z m-4960 -10 c-3 -8 -6 -5 -6
6 -1 11 2 17 5 13 3 -3 4 -12 1 -19z m1570 0 c-3 -8 -6 -5 -6 6 -1 11 2 17 5
13 3 -3 4 -12 1 -19z m-2087 -8 c0 -14 -7 -20 -24 -20 -13 0 -27 -6 -29 -12
-3 -8 -6 -6 -6 5 -1 12 7 17 24 17 16 0 25 6 25 15 0 8 2 15 5 15 3 0 5 -9 5
-20z m3020 0 c0 -14 -7 -20 -24 -20 -13 0 -27 -6 -29 -12 -3 -8 -6 -6 -6 5 -1
12 7 17 24 17 16 0 25 6 25 15 0 8 2 15 5 15 3 0 5 -9 5 -20z m1547 -2 c-3 -8
-6 -5 -6 6 -1 11 2 17 5 13 3 -3 4 -12 1 -19z m-1927 -3 c0 -9 -9 -15 -24 -15
-13 0 -27 -6 -29 -12 -3 -8 -6 -6 -6 5 -1 12 7 17 24 17 14 0 25 5 25 10 0 6
2 10 5 10 3 0 5 -7 5 -15z m185 5 c-3 -5 -1 -19 5 -30 6 -11 8 -20 6 -20 -10
0 -27 41 -21 50 3 6 8 10 11 10 3 0 2 -4 -1 -10z m1224 -7 c13 3 21 0 21 -7 0
-8 -11 -11 -30 -8 -19 3 -30 10 -30 21 0 13 2 13 9 2 5 -8 18 -12 30 -8z
m1471 3 c0 -8 -13 -16 -30 -18 -16 -3 -30 -1 -30 4 0 4 11 8 25 8 14 0 25 5
25 10 0 6 2 10 5 10 3 0 5 -6 5 -14z m-2170 -8 c0 -5 -13 -8 -30 -8 -16 0 -30
3 -30 8 0 4 14 7 30 7 17 0 30 -3 30 -7z m1187 -10 c-3 -8 -6 -5 -6 6 -1 11 2
17 5 13 3 -3 4 -12 1 -19z m-4011 -6 c1 -7 0 -8 -3 -2 -8 17 -53 12 -53 -7 0
-9 -3 -14 -6 -10 -4 3 -4 13 0 22 7 19 58 17 62 -3z m1610 -5 c1 -12 1 -13 -3
-2 -5 17 -53 21 -53 3 0 -6 -3 -9 -6 -5 -12 12 9 28 34 25 17 -2 27 -10 28
-21z m2424 -7 c0 -5 -5 -10 -11 -10 -5 0 -7 5 -4 10 3 6 8 10 11 10 2 0 4 -4
4 -10z"/>
<path d="M2660 3745 c0 -3 72 -41 160 -85 l161 -81 -3 83 -3 83 -157 3 c-87 1
-158 0 -158 -3z"/>
<path d="M3027 3743 c-8 -7 -10 -163 -2 -163 13 0 315 156 315 162 0 10 -304
11 -313 1z"/>
<path d="M2340 3641 l-195 -99 203 -101 202 -101 195 97 c107 54 195 101 195
105 0 10 -375 198 -392 197 -7 0 -101 -44 -208 -98z"/>
<path d="M3255 3644 c-104 -52 -191 -98 -193 -102 -1 -4 86 -51 193 -105 l195
-97 202 101 203 101 -195 99 c-107 54 -199 98 -205 98 -5 0 -95 -43 -200 -95z"/>
<path d="M2763 3402 l-193 -97 0 -202 0 -203 205 102 205 103 0 197 c0 152 -3
198 -12 197 -7 0 -100 -44 -205 -97z"/>
<path d="M3020 3302 l0 -197 205 -103 205 -102 0 203 0 202 -195 98 c-107 53
-200 97 -205 97 -6 0 -10 -73 -10 -198z"/>
<path d="M2177 3467 c4 -8 85 -130 178 -271 l170 -256 3 172 c1 95 0 178 -3
185 -2 8 -71 45 -152 84 -82 39 -161 78 -176 86 -25 12 -28 12 -20 0z"/>
<path d="M3648 3389 l-178 -89 0 -175 c0 -96 3 -175 8 -175 4 0 77 107 162
237 198 302 193 293 188 292 -1 0 -83 -40 -180 -90z"/>
<path d="M2786 2963 l-189 -95 202 -104 201 -104 117 59 c65 32 156 79 202
104 l84 45 -191 96 c-106 53 -202 95 -214 95 -13 -1 -108 -44 -212 -96z"/>
<path d="M3387 1784 c-4 -4 -7 -47 -7 -96 l0 -88 34 0 c52 0 66 21 66 94 0 41
-5 68 -13 75 -18 14 -70 25 -80 15z"/>
</g>
</svg>
